# xmcd CD database file
#
# Track frame offsets:
#	150
#	20913
#	49242
#	76217
#	107560
#	138028
#	163910
#	206471
#	226539
#
# Disc length: 3251 seconds
#
# Revision: 2
# Processed by: cddbd v1.5.2PL0 Copyright (c) Steve Scherf et al.
# Submitted via: CDex 1.98
#
DISCID=6a0cb109
DTITLE=Per MATHISEN, Ruggero ROBIN, Gergo BORLAI - ospitalita generosa
DYEAR=2015
DGENRE=Jazz
TTITLE0=Floating Fretless Dreams
TTITLE1=Baitina Scenery
TTITLE2=Eric
TTITLE3=June Winds
TTITLE4=High Ground
TTITLE5=Tritone Funk
TTITLE6=The Ambling Alp
TTITLE7=I don't wanna know
TTITLE8=Der Boden des Weissensee
EXTD=YEAR: 2015
EXTT0=
EXTT1=
EXTT2=
EXTT3=
EXTT4=
EXTT5=
EXTT6=
EXTT7=
EXTT8=
PLAYORDER=
